<?xml version="1.0" encoding="UTF-8"?>
<svg width="1440px" height="135px" viewBox="0 0 1440 135" version="1.1" xmlns="http://www.w3.org/2000/svg" xmlns:xlink="http://www.w3.org/1999/xlink">
    <!-- Generator: sketchtool 53.2 (72643) - https://sketchapp.com -->
    <title>C23A8781-6D6F-401D-AAED-CB8DF963858A</title>
    <desc>Created with sketchtool.</desc>
    <g id="Aafart---Desktop-HD" stroke="none" stroke-width="1" fill="none" fill-rule="evenodd">
        <g id="Aafart---forside" transform="translate(0.000000, -692.000000)" fill-rule="nonzero">
            <g id="Wave---hero" transform="translate(721.000000, 760.500000) rotate(2.000000) translate(-721.000000, -760.500000) translate(-10.000000, 564.000000)">
                <g id="bølgen" transform="translate(731.500000, 179.500000) rotate(-6.000000) translate(-731.500000, -179.500000) translate(8.000000, 76.000000)" fill="#96BCCE">
                    <path d="M0,0 L0,54.2918589 C543.494797,149.618589 1199.74951,104.539213 1447,207 L1447,152.708141 C1181.46951,75.6940299 352.053902,112.684396 0,0" id="Shape"></path>
                </g>
                <g id="bølgen-copy" transform="translate(731.000000, 213.500000) rotate(-6.000000) translate(-731.000000, -213.500000) translate(7.000000, 110.000000)" fill="#64A0BA">
                    <path d="M0.676191276,0.0433018676 L0.676191276,54.2055859 C544.168902,149.304806 1200.42109,104.333018 1447.67064,206.549268 L1447.67064,152.386984 C1182.14117,75.5566777 352.728742,112.458762 0.676191276,0.0433018676" id="Shape"></path>
                </g>
            </g>
        </g>
    </g>
</svg>