<?xml version="1.0" encoding="UTF-8"?>
<svg width="37px" height="37px" viewBox="0 0 37 37" version="1.1" xmlns="http://www.w3.org/2000/svg" xmlns:xlink="http://www.w3.org/1999/xlink">
    <!-- Generator: sketchtool 53.2 (72643) - https://sketchapp.com -->
    <title>D2DC9CDB-D7B5-4AA4-849D-7B66C326A907</title>
    <desc>Created with sketchtool.</desc>
    <g id="Aafart---Desktop-HD" stroke="none" stroke-width="1" fill="none" fill-rule="evenodd">
        <g id="Aafart---forside" transform="translate(-702.000000, -821.000000)" fill="#549AB4" fill-rule="nonzero">
            <g id="calendar" transform="translate(702.000000, 821.000000)">
                <path d="M32.6640625,2.890625 L30.9296875,2.890625 L30.9296875,0 L28.0390625,0 L28.0390625,2.890625 L8.9609375,2.890625 L8.9609375,0 L6.0703125,0 L6.0703125,2.890625 L4.3359375,2.890625 C1.94510156,2.890625 0,4.83572656 0,7.2265625 L0,32.6640625 C0,35.0548984 1.94510156,37 4.3359375,37 L32.6640625,37 C35.0548984,37 37,35.0548984 37,32.6640625 L37,7.2265625 C37,4.83572656 35.0548984,2.890625 32.6640625,2.890625 Z M34.109375,32.6640625 C34.109375,33.4610078 33.4610078,34.109375 32.6640625,34.109375 L4.3359375,34.109375 C3.53899219,34.109375 2.890625,33.4610078 2.890625,32.6640625 L2.890625,13.5859375 L34.109375,13.5859375 L34.109375,32.6640625 Z M34.109375,10.6953125 L2.890625,10.6953125 L2.890625,7.2265625 C2.890625,6.42961719 3.53899219,5.78125 4.3359375,5.78125 L6.0703125,5.78125 L6.0703125,8.671875 L8.9609375,8.671875 L8.9609375,5.78125 L28.0390625,5.78125 L28.0390625,8.671875 L30.9296875,8.671875 L30.9296875,5.78125 L32.6640625,5.78125 C33.4610078,5.78125 34.109375,6.42961719 34.109375,7.2265625 L34.109375,10.6953125 Z" id="Shape"></path>
                <polygon id="Rectangle-path" points="6 16 9 16 9 19 6 19"></polygon>
                <polygon id="Rectangle-path" points="10 16 13 16 13 19 10 19"></polygon>
                <polygon id="Rectangle-path" points="16 16 19 16 19 19 16 19"></polygon>
                <polygon id="Rectangle-path" points="22 16 25 16 25 19 22 19"></polygon>
                <polygon id="Rectangle-path" points="27 16 30 16 30 19 27 19"></polygon>
                <polygon id="Rectangle-path" points="6 22 9 22 9 25 6 25"></polygon>
                <polygon id="Rectangle-path" points="10 22 13 22 13 25 10 25"></polygon>
                <polygon id="Rectangle-path" points="16 22 19 22 19 25 16 25"></polygon>
                <polygon id="Rectangle-path" points="22 22 25 22 25 25 22 25"></polygon>
                <polygon id="Rectangle-path" points="6 28 9 28 9 31 6 31"></polygon>
                <polygon id="Rectangle-path" points="10 28 13 28 13 31 10 31"></polygon>
                <polygon id="Rectangle-path" points="16 28 19 28 19 31 16 31"></polygon>
                <polygon id="Rectangle-path" points="22 28 25 28 25 31 22 31"></polygon>
                <polygon id="Rectangle-path" points="27 22 30 22 30 25 27 25"></polygon>
            </g>
        </g>
    </g>
</svg>