<svg xmlns="http://www.w3.org/2000/svg" width="21.35" height="21.345" viewBox="0 0 21.35 21.345"><path d="M10.672,7.438a5.473,5.473,0,1,0,5.473,5.473A5.464,5.464,0,0,0,10.672,7.438Zm0,9.031A3.558,3.558,0,1,1,14.23,12.91,3.564,3.564,0,0,1,10.672,16.468Zm6.973-9.254a1.276,1.276,0,1,1-1.276-1.276A1.274,1.274,0,0,1,17.645,7.214Zm3.625,1.3a6.317,6.317,0,0,0-1.724-4.472,6.359,6.359,0,0,0-4.472-1.724c-1.762-.1-7.044-.1-8.807,0A6.349,6.349,0,0,0,1.794,4.032,6.338,6.338,0,0,0,.07,8.5c-.1,1.762-.1,7.044,0,8.807a6.317,6.317,0,0,0,1.724,4.472,6.367,6.367,0,0,0,4.472,1.724c1.762.1,7.044.1,8.807,0a6.317,6.317,0,0,0,4.472-1.724,6.358,6.358,0,0,0,1.724-4.472c.1-1.762.1-7.04,0-8.8ZM18.993,19.2a3.6,3.6,0,0,1-2.029,2.029c-1.405.557-4.739.429-6.292.429s-4.892.124-6.292-.429A3.6,3.6,0,0,1,2.351,19.2c-.557-1.405-.429-4.739-.429-6.292S1.8,8.019,2.351,6.618A3.6,3.6,0,0,1,4.38,4.589c1.405-.557,4.739-.429,6.292-.429s4.892-.124,6.292.429a3.6,3.6,0,0,1,2.029,2.029c.557,1.405.429,4.739.429,6.292S19.55,17.8,18.993,19.2Z" transform="translate(0.005 -2.238)"/></svg>