<svg xmlns="http://www.w3.org/2000/svg" width="21.338" height="21.338" viewBox="0 0 21.338 21.338"><path d="M19.814,2.25H1.519A1.531,1.531,0,0,0,0,3.788V22.05a1.531,1.531,0,0,0,1.519,1.538H19.814a1.535,1.535,0,0,0,1.524-1.538V3.788A1.535,1.535,0,0,0,19.814,2.25ZM6.449,20.54H3.286V10.357H6.454V20.54ZM4.868,8.966A1.834,1.834,0,1,1,6.7,7.132,1.835,1.835,0,0,1,4.868,8.966ZM18.3,20.54H15.142V15.586c0-1.181-.024-2.7-1.643-2.7-1.648,0-1.9,1.286-1.9,2.615V20.54H8.435V10.357h3.034v1.391h.043a3.331,3.331,0,0,1,3-1.643c3.2,0,3.8,2.11,3.8,4.853Z" transform="translate(0 -2.25)"/></svg>